<svg width="48" height="49" viewBox="0 0 48 49" fill="none" xmlns="http://www.w3.org/2000/svg">
<g clip-path="url(#clip0_117_2707)">
<rect x="4" y="4.25" width="40" height="40" rx="20" fill="#65558F"/>
<path d="M21.2502 34.25L20.8502 31.05C20.6335 30.9667 20.4294 30.8667 20.2377 30.75C20.046 30.6333 19.8585 30.5083 19.6752 30.375L16.7002 31.625L13.9502 26.875L16.5252 24.925C16.5085 24.8083 16.5002 24.6958 16.5002 24.5875V23.9125C16.5002 23.8042 16.5085 23.6917 16.5252 23.575L13.9502 21.625L16.7002 16.875L19.6752 18.125C19.8585 17.9917 20.0502 17.8667 20.2502 17.75C20.4502 17.6333 20.6502 17.5333 20.8502 17.45L21.2502 14.25H26.7502L27.1502 17.45C27.3669 17.5333 27.571 17.6333 27.7627 17.75C27.9544 17.8667 28.1419 17.9917 28.3252 18.125L31.3002 16.875L34.0502 21.625L31.4752 23.575C31.4919 23.6917 31.5002 23.8042 31.5002 23.9125V24.5875C31.5002 24.6958 31.4835 24.8083 31.4502 24.925L34.0252 26.875L31.2752 31.625L28.3252 30.375C28.1419 30.5083 27.9502 30.6333 27.7502 30.75C27.5502 30.8667 27.3502 30.9667 27.1502 31.05L26.7502 34.25H21.2502ZM23.0002 32.25H24.9752L25.3252 29.6C25.8419 29.4667 26.321 29.2708 26.7627 29.0125C27.2044 28.7542 27.6085 28.4417 27.9752 28.075L30.4502 29.1L31.4252 27.4L29.2752 25.775C29.3585 25.5417 29.4169 25.2958 29.4502 25.0375C29.4835 24.7792 29.5002 24.5167 29.5002 24.25C29.5002 23.9833 29.4835 23.7208 29.4502 23.4625C29.4169 23.2042 29.3585 22.9583 29.2752 22.725L31.4252 21.1L30.4502 19.4L27.9752 20.45C27.6085 20.0667 27.2044 19.7458 26.7627 19.4875C26.321 19.2292 25.8419 19.0333 25.3252 18.9L25.0002 16.25H23.0252L22.6752 18.9C22.1585 19.0333 21.6794 19.2292 21.2377 19.4875C20.796 19.7458 20.3919 20.0583 20.0252 20.425L17.5502 19.4L16.5752 21.1L18.7252 22.7C18.6419 22.95 18.5835 23.2 18.5502 23.45C18.5169 23.7 18.5002 23.9667 18.5002 24.25C18.5002 24.5167 18.5169 24.775 18.5502 25.025C18.5835 25.275 18.6419 25.525 18.7252 25.775L16.5752 27.4L17.5502 29.1L20.0252 28.05C20.3919 28.4333 20.796 28.7542 21.2377 29.0125C21.6794 29.2708 22.1585 29.4667 22.6752 29.6L23.0002 32.25ZM24.0502 27.75C25.0169 27.75 25.8419 27.4083 26.5252 26.725C27.2085 26.0417 27.5502 25.2167 27.5502 24.25C27.5502 23.2833 27.2085 22.4583 26.5252 21.775C25.8419 21.0917 25.0169 20.75 24.0502 20.75C23.0669 20.75 22.2377 21.0917 21.5627 21.775C20.8877 22.4583 20.5502 23.2833 20.5502 24.25C20.5502 25.2167 20.8877 26.0417 21.5627 26.725C22.2377 27.4083 23.0669 27.75 24.0502 27.75Z" fill="white"/>
</g>
<defs>
<clipPath id="clip0_117_2707">
<rect x="4" y="4.25" width="40" height="40" rx="20" fill="white"/>
</clipPath>
</defs>
</svg>
